<svg xmlns="http://www.w3.org/2000/svg" viewBox="0 0 64 64" width="64px" height="64px"><radialGradient id="bSnbCh6REFf_GMc537foqa" cx="31.83" cy="28.009" r="91.242" gradientTransform="matrix(1 0 0 -1 0 66)" gradientUnits="userSpaceOnUse"><stop offset="0" stop-color="#afeeff"/><stop offset=".193" stop-color="#bbf1ff"/><stop offset=".703" stop-color="#d7f8ff"/><stop offset="1" stop-color="#e1faff"/></radialGradient><path fill="url(#bSnbCh6REFf_GMc537foqa)" d="M60,45H45l-2.6-1c0,0,1.6-5.672,1.6-6.5s0.672-1.5,1.5-1.5c0,0,0.5-7.895,0.5-9s0.895-2,2-2	h12.412c1.139,0,2.202-0.721,2.497-1.821C63.355,21.516,62.096,20,60.5,20H59c-1.105,0-2-0.895-2-2s0.895-2,2-2h2	c1.848,0,3.319-1.693,2.94-3.605C63.657,10.972,62.32,10,60.869,10H45.5C44.672,10,44,9.328,44,8.5S44.672,7,45.5,7h6.912	c1.139,0,2.202-0.721,2.497-1.821C55.355,3.516,54.096,2,52.5,2H11.588c-1.139,0-2.202,0.721-2.497,1.821	C8.645,5.484,9.904,7,11.5,7H21c1.381,0,3,1.119,3,2.5S23.381,12,22,12H6.588H4c-1.65,0-3,1.35-3,3s1.35,3,3,3h22	c0.352,0,0.685-0.073,1-0.185V32h-7.412c-1.139,0-2.202-0.279-2.497,0.821c-0.219,0.817-0.024,1.595,0.418,2.179H6.5	C5.119,35,4,36.119,4,37.5S5.119,40,6.5,40h10c1.381,0,2.5,1.119,2.5,2.5S17.881,45,16.5,45H5c-1.657,0-3,1.343-3,3s1.343,3,3,3h5.5	c1.381,0,2.5,1.119,2.5,2.5S11.881,56,10.5,56H7c-1.657,0-3,1.343-3,3s1.343,3,3,3h49c1.657,0,3-1.343,3-3s-1.343-3-3-3h-2.5	c-1.381,0-2.5-1.119-2.5-2.5s1.119-2.5,2.5-2.5H60c1.657,0,3-1.343,3-3S61.657,45,60,45z"/><linearGradient id="bSnbCh6REFf_GMc537foqb" x1="13.999" x2="13.999" y1="-26.468" y2="24.734" gradientTransform="matrix(1 0 0 -1 0 66)" gradientUnits="userSpaceOnUse"><stop offset="0" stop-color="#ffc050"/><stop offset=".004" stop-color="#ffc050"/><stop offset=".641" stop-color="#ffbe75"/><stop offset="1" stop-color="#ffbd85"/><stop offset="1" stop-color="#ffbd85"/></linearGradient><path fill="url(#bSnbCh6REFf_GMc537foqb)" d="M16.088,46h0.271c1.458,0,1.64-1.182,1.64-2.64v-8.72c0-1.458-1.182-2.64-2.64-2.64h-0.271	C12.278,32,10,34.278,10,37.088V40C10,42.81,13.278,46,16.088,46z"/><linearGradient id="bSnbCh6REFf_GMc537foqc" x1="50" x2="50" y1="-26.468" y2="24.734" gradientTransform="matrix(1 0 0 -1 0 66)" gradientUnits="userSpaceOnUse"><stop offset="0" stop-color="#ffc050"/><stop offset=".004" stop-color="#ffc050"/><stop offset=".641" stop-color="#ffbe75"/><stop offset="1" stop-color="#ffbd85"/><stop offset="1" stop-color="#ffbd85"/></linearGradient><path fill="url(#bSnbCh6REFf_GMc537foqc)" d="M47.64,46h0.271C50.722,46,54,42.81,54,40v-2.912C54,34.278,51.722,32,48.912,32H48.64	C47.182,32,46,33.182,46,34.64v8.719C46,44.818,46.182,46,47.64,46z"/><linearGradient id="bSnbCh6REFf_GMc537foqd" x1="32" x2="32" y1="-25.468" y2="25.734" gradientTransform="matrix(1 0 0 -1 0 66)" gradientUnits="userSpaceOnUse"><stop offset="0" stop-color="#ffc050"/><stop offset=".004" stop-color="#ffc050"/><stop offset=".641" stop-color="#ffbe75"/><stop offset="1" stop-color="#ffbd85"/><stop offset="1" stop-color="#ffbd85"/></linearGradient><path fill="url(#bSnbCh6REFf_GMc537foqd)" d="M49,25l-0.32,5l-0.18,3l-0.82,12.92c-0.28,2.51-1.6,4.72-3.55,6.17	c-0.65,0.49-2.22,1.08-2.61,1.8C40.85,55.15,39.52,56,38,56H26c-1.48,0-2.76-0.81-3.45-2c-0.38-0.66-1.92-1.19-2.54-1.64	c-2.01-1.46-3.38-3.71-3.67-6.27L15.51,33l-0.19-3L15,25H49z"/><linearGradient id="bSnbCh6REFf_GMc537foqe" x1="22.182" x2="41.817" y1="14.5" y2="14.5" gradientTransform="matrix(1 0 0 -1 0 66)" gradientUnits="userSpaceOnUse"><stop offset="0" stop-color="#e3714d"/><stop offset=".25" stop-color="#e4754e"/><stop offset="1" stop-color="#e77b50"/></linearGradient><path fill="url(#bSnbCh6REFf_GMc537foqe)" d="M41.766,52.221l-0.533-3.733c-0.14-0.98-0.519-1.9-1.091-2.684	c-0.656-0.9-1.609-1.541-2.642-1.956l-0.678-0.272C35.874,43.195,34.863,43,33.842,43h-3.685c-1.021,0-2.032,0.195-2.979,0.575	L26.5,43.847c-1.034,0.415-1.987,1.055-2.642,1.956c-0.571,0.784-0.951,1.704-1.091,2.684l-0.533,3.733	c-0.268,1.867,0.521,3.702,2.057,4.79C26.221,58.374,29.125,60,32,60s5.779-1.626,7.71-2.99	C41.245,55.923,42.033,54.088,41.766,52.221z M27.459,47.773l0.135-0.054C28.778,47.244,30.042,47,31.318,47h1.364	c1.276,0,2.54,0.244,3.724,0.719l0.135,0.054c0.396,0.316,0.66,0.774,0.732,1.28l0.202,1.415c0.102,0.713-0.157,1.438-0.71,1.899	c-0.032,0.027-0.059,0.048-0.078,0.061c-0.346,0.238-0.757,0.421-1.206,0.502c-0.207,0.04-0.421,0.058-0.638,0.056	C33.814,52.976,33,52.091,33,51.061V51h1c0.553,0,1-0.447,1-1s-0.447-1-1-1h-4c-0.553,0-1,0.447-1,1s0.447,1,1,1h1l0,0	c0,1.043-0.835,1.94-1.878,1.926c-0.206-0.003-0.408-0.024-0.603-0.063c-0.44-0.087-0.839-0.275-1.172-0.514l0,0	c-0.608-0.446-0.921-1.191-0.814-1.938l0.194-1.357C26.799,48.548,27.062,48.09,27.459,47.773z"/><linearGradient id="bSnbCh6REFf_GMc537foqf" x1="32" x2="32" y1="57.255" y2="39.039" gradientTransform="matrix(1 0 0 -1 0 66)" gradientUnits="userSpaceOnUse"><stop offset=".122" stop-color="#5e6d7b"/><stop offset=".191" stop-color="#5d6b79"/><stop offset="1" stop-color="#515c69"/></linearGradient><path fill="url(#bSnbCh6REFf_GMc537foqf)" d="M52.528,28H11.472c-1.515,0-2.9-0.856-3.578-2.211l0,0C7.483,24.967,8.081,24,9,24h46	c0.919,0,1.517,0.967,1.106,1.789l0,0C55.428,27.144,54.043,28,52.528,28z"/><linearGradient id="bSnbCh6REFf_GMc537foqg" x1="19.724" x2="19.724" y1="25.064" y2="29.452" gradientTransform="matrix(1 0 0 -1 0 66)" gradientUnits="userSpaceOnUse"><stop offset=".122" stop-color="#5e6d7b"/><stop offset=".191" stop-color="#5d6b79"/><stop offset="1" stop-color="#515c69"/></linearGradient><polygon fill="url(#bSnbCh6REFf_GMc537foqg)" points="24,32 24,35 15.64,35 15.447,32"/><linearGradient id="bSnbCh6REFf_GMc537foqh" x1="32" x2="32" y1="25.064" y2="29.452" gradientTransform="matrix(1 0 0 -1 0 66)" gradientUnits="userSpaceOnUse"><stop offset=".122" stop-color="#5e6d7b"/><stop offset=".191" stop-color="#5d6b79"/><stop offset="1" stop-color="#515c69"/></linearGradient><rect width="14" height="3" x="25" y="32" fill="url(#bSnbCh6REFf_GMc537foqh)"/><linearGradient id="bSnbCh6REFf_GMc537foqi" x1="44.28" x2="44.28" y1="25.064" y2="29.452" gradientTransform="matrix(1 0 0 -1 0 66)" gradientUnits="userSpaceOnUse"><stop offset=".122" stop-color="#5e6d7b"/><stop offset=".191" stop-color="#5d6b79"/><stop offset="1" stop-color="#515c69"/></linearGradient><polygon fill="url(#bSnbCh6REFf_GMc537foqi)" points="48.56,32 48.373,35 40,35 40,32"/><linearGradient id="bSnbCh6REFf_GMc537foqj" x1="24" x2="24" y1="35.915" y2="23.506" gradientTransform="matrix(1 0 0 -1 0 66)" gradientUnits="userSpaceOnUse"><stop offset=".122" stop-color="#5e6d7b"/><stop offset=".191" stop-color="#5d6b79"/><stop offset="1" stop-color="#515c69"/></linearGradient><path fill="url(#bSnbCh6REFf_GMc537foqj)" d="M25.558,41h-4.204C18.949,41,17,39.051,17,36.646v-2.293C17,31.949,18.949,30,21.354,30	h6.381C29.538,30,31,31.462,31,33.265v2.293C31,38.564,28.564,41,25.558,41z"/><linearGradient id="bSnbCh6REFf_GMc537foqk" x1="40" x2="40" y1="35.915" y2="23.506" gradientTransform="matrix(1 0 0 -1 0 66)" gradientUnits="userSpaceOnUse"><stop offset=".122" stop-color="#5e6d7b"/><stop offset=".191" stop-color="#5d6b79"/><stop offset="1" stop-color="#515c69"/></linearGradient><path fill="url(#bSnbCh6REFf_GMc537foqk)" d="M38.442,41h4.204C45.051,41,47,39.051,47,36.646v-2.293C47,31.949,45.051,30,42.646,30	h-6.381C34.462,30,33,31.462,33,33.265v2.293C33,38.564,35.436,41,38.442,41z"/><linearGradient id="bSnbCh6REFf_GMc537foql" x1="32" x2="32" y1="61.303" y2="39.672" gradientTransform="matrix(1 0 0 -1 0 66)" gradientUnits="userSpaceOnUse"><stop offset=".122" stop-color="#5e6d7b"/><stop offset=".191" stop-color="#5d6b79"/><stop offset="1" stop-color="#515c69"/></linearGradient><path fill="url(#bSnbCh6REFf_GMc537foql)" d="M50,24H14l1.1-7l1.1-6.94C16.66,7.15,19.17,5,22.13,5h19.74c2.96,0,5.47,2.15,5.93,5.06	L48.9,17L50,24z"/><linearGradient id="bSnbCh6REFf_GMc537foqm" x1="32" x2="32" y1="26.933" y2="50.161" gradientTransform="matrix(1 0 0 -1 0 66)" gradientUnits="userSpaceOnUse"><stop offset="0" stop-color="#6f7a85"/><stop offset="1" stop-color="#788490"/></linearGradient><polygon fill="url(#bSnbCh6REFf_GMc537foqm)" points="50,24 14,24 15.1,17 48.9,17"/></svg>